<svg width="48" height="48" viewBox="0 0 48 48" fill="none" xmlns="http://www.w3.org/2000/svg" role="img" aria-label="Doculus logo">
  <defs>
    <linearGradient id="dgrad" x1="6" y1="4" x2="42" y2="44" gradientUnits="userSpaceOnUse">
      <stop stop-color="#4CC9F0"/>
      <stop offset="0.55" stop-color="#7B61FF"/>
      <stop offset="1" stop-color="#34E0A1"/>
    </linearGradient>
    <linearGradient id="dgrad2" x1="12" y1="8" x2="36" y2="40" gradientUnits="userSpaceOnUse">
      <stop stop-color="#4CC9F0"/>
      <stop offset="1" stop-color="#34E0A1"/>
    </linearGradient>
  </defs>

  <!-- back sheets (the stack) -->
  <rect x="13" y="9" width="22" height="28" rx="4" transform="rotate(8 24 23)" fill="url(#dgrad)" opacity="0.22"/>
  <rect x="12" y="8" width="22" height="28" rx="4" transform="rotate(4 23 22)" fill="url(#dgrad)" opacity="0.40"/>

  <!-- front sheet -->
  <path d="M12 9.5A3.5 3.5 0 0 1 15.5 6H27l9 9v18.5A3.5 3.5 0 0 1 32.5 37h-17A3.5 3.5 0 0 1 12 33.5v-24Z" fill="#0d1322" stroke="url(#dgrad2)" stroke-width="2"/>
  <!-- folded corner -->
  <path d="M27 6v6a3 3 0 0 0 3 3h6" stroke="url(#dgrad2)" stroke-width="2" stroke-linejoin="round" fill="none"/>

  <!-- document lines -->
  <rect x="16.5" y="19" width="10" height="2.2" rx="1.1" fill="#4CC9F0"/>
  <rect x="16.5" y="23.6" width="15" height="2.2" rx="1.1" fill="#6f8bd6" opacity="0.6"/>
  <rect x="16.5" y="28.2" width="12" height="2.2" rx="1.1" fill="#6f8bd6" opacity="0.6"/>

  <!-- control orbit node -->
  <circle cx="35" cy="33" r="8.5" fill="#0a0e1a"/>
  <circle cx="35" cy="33" r="6.6" fill="none" stroke="url(#dgrad)" stroke-width="1.6" stroke-dasharray="2.2 3"/>
  <circle cx="35" cy="33" r="3" fill="url(#dgrad2)"/>
</svg>
