<svg width="48" height="48" viewBox="0 0 48 48" fill="none" xmlns="http://www.w3.org/2000/svg" role="img" aria-label="Doculus logo">
  <!-- back sheets (the stack) -->
  <rect x="13" y="9" width="22" height="28" rx="2" transform="rotate(8 24 23)" stroke="#8b8f98" stroke-width="1.4" opacity="0.35"/>
  <rect x="12" y="8" width="22" height="28" rx="2" transform="rotate(4 23 22)" stroke="#c9ccd3" stroke-width="1.4" opacity="0.55"/>

  <!-- front sheet -->
  <path d="M12 8.5A2.5 2.5 0 0 1 14.5 6H27l9 9v19.5A2.5 2.5 0 0 1 33.5 37h-19A2.5 2.5 0 0 1 12 34.5v-26Z" fill="#101114" stroke="#f2f1ec" stroke-width="1.8"/>
  <!-- folded corner -->
  <path d="M27 6v6a3 3 0 0 0 3 3h6" stroke="#f2f1ec" stroke-width="1.8" stroke-linejoin="round" fill="none"/>

  <!-- document lines -->
  <rect x="16.5" y="19" width="10" height="1.8" rx="0.9" fill="#ff7a1a"/>
  <rect x="16.5" y="23.6" width="15" height="1.8" rx="0.9" fill="#c9ccd3" opacity="0.55"/>
  <rect x="16.5" y="28.2" width="12" height="1.8" rx="0.9" fill="#c9ccd3" opacity="0.55"/>

  <!-- control node -->
  <circle cx="35" cy="33" r="8.5" fill="#101114"/>
  <circle cx="35" cy="33" r="6.6" fill="none" stroke="#f2f1ec" stroke-width="1.4" stroke-dasharray="2.2 3"/>
  <circle cx="35" cy="33" r="2.8" fill="#ff7a1a"/>
</svg>
